<svg width="698" height="523" fill="none" xmlns="http://www.w3.org/2000/svg"><path d="M640.611 465.796c64.232-62.364 79.593-189.672 20.093-278.209-49.603-73.777-140.945-149.67-256.06-171.798C289.529-6.339 188.678-6.316 145.065 22.925c-35.705 23.919-19.11 57.228-7.909 85.539 14.949 37.795 17.143 67.78-44.323 122.682-70.175 62.667-89.17 86.19-92.69 146.787-2.858 49.278 37.602 115.57 90.701 125.077C164.769 516.236 192.2 481.3 264.5 457.754c58.014-18.898 98.245-10.065 150.842 26.149 52.597 36.191 131.001 73.405 225.269-18.107z" fill="url(#paint0_linear)"/><defs><linearGradient id="paint0_linear" x1="56" y1="440" x2="640" y2="209" gradientUnits="userSpaceOnUse"><stop stop-color="#F9FAFE"/><stop offset="1" stop-color="#E5E9F5" stop-opacity=".5"/></linearGradient></defs></svg>